<svg width="95" height="116" viewBox="0 0 95 116" fill="none" xmlns="http://www.w3.org/2000/svg">
<g filter="url(#filter0_d_3_467)">
<path d="M80.4545 82.9692L47.5879 108L14.5455 82.9692C8.74545 77.1929 4 74.7423 4 68.966V10.5024C4 4.72609 8.74545 0 14.5455 0H80.4545C86.2545 0 91 4.72609 91 10.5024V68.966C91 74.7423 86.6061 76.8428 80.4545 82.9692Z" fill="white"/>
<mask id="mask0_3_467" style="mask-type:alpha" maskUnits="userSpaceOnUse" x="4" y="0" width="87" height="108">
<path d="M80.4545 82.9692L47.5879 108L14.5455 82.9692C8.74545 77.1929 4 74.7423 4 68.966V10.5024C4 4.72609 8.74545 0 14.5455 0H80.4545C86.2545 0 91 4.72609 91 10.5024V68.966C91 74.7423 86.6061 76.8428 80.4545 82.9692Z" fill="white"/>
</mask>
<g mask="url(#mask0_3_467)">
<path d="M4 74.9999H91V132H4V74.9999Z" fill="#D33333"/>
</g>
</g>
<defs>
<filter id="filter0_d_3_467" x="0" y="0" width="95" height="116" filterUnits="userSpaceOnUse" color-interpolation-filters="sRGB">
<feFlood flood-opacity="0" result="BackgroundImageFix"/>
<feColorMatrix in="SourceAlpha" type="matrix" values="0 0 0 0 0 0 0 0 0 0 0 0 0 0 0 0 0 0 127 0" result="hardAlpha"/>
<feOffset dy="4"/>
<feGaussianBlur stdDeviation="2"/>
<feComposite in2="hardAlpha" operator="out"/>
<feColorMatrix type="matrix" values="0 0 0 0 0 0 0 0 0 0 0 0 0 0 0 0 0 0 0.25 0"/>
<feBlend mode="normal" in2="BackgroundImageFix" result="effect1_dropShadow_3_467"/>
<feBlend mode="normal" in="SourceGraphic" in2="effect1_dropShadow_3_467" result="shape"/>
</filter>
</defs>
</svg>
