<svg width="1167" height="586" viewBox="0 0 1167 586" fill="none" xmlns="http://www.w3.org/2000/svg">
<g opacity="0.3" filter="url(#filter0_f_6381_12132)">
<path d="M1147.23 565.954H20.0171L278.049 71.2539H887.024L1147.23 565.954Z" fill="black"/>
</g>
<g opacity="0.3" filter="url(#filter1_f_6381_12132)">
<path d="M1124.39 555.948H42.8491L290.427 81.2695H874.732L1124.39 555.948Z" fill="black"/>
</g>
<path d="M1159 540.002H8L274 36.0018H894L1159 540.002Z" fill="url(#paint0_linear_6381_12132)"/>
<path d="M8 540H1159L1154 552H13L8 540Z" fill="#108068"/>
<g opacity="0.5">
<path d="M200 217C306.803 215.462 475.392 216.198 583.5 216.047C691.93 216.196 859.747 215.467 967 217C860.197 218.533 691.608 217.805 583.5 217.953C475.07 217.801 307.253 218.539 200 217Z" fill="white"/>
<path d="M701.799 217.482C705.675 242.504 653.068 264 584.046 264C515.048 264 462.392 242.477 466.194 217.482C469.773 193.998 522.404 176 583.947 176C645.49 176 698.145 193.998 701.774 217.482H701.799Z" stroke="white" stroke-width="1.6"/>
<path d="M1123 526H46L284.752 47H880.762L1123 526Z" stroke="white" stroke-width="1.6"/>
<path d="M282 525L311.425 409.002C333 409.002 727.862 409 857 409L887 524.952L855.5 410.5C832.5 410.5 318 410.5 313 410.5L282 525Z" fill="white"/>
<path d="M424 524.275C424.6 514.014 433.337 477.246 434 467C535.026 467 636.054 467 737.08 467C737.747 477.241 743.389 514.746 744 525C742.836 515.208 737.108 478.305 736 468.5C680.795 468.5 435 468.5 435 468.5C433.889 478.303 425.175 514.485 424 524.275Z" fill="white"/>
<path d="M724.5 410C690.485 391.54 639.622 379 584.476 379C529.33 379 478.49 391.54 444.5 410" stroke="white" stroke-width="1.6"/>
<path d="M750.911 48.3652C750.911 48.3652 757.5 74 761.5 89C643.165 89.663 525.337 89 407 89L418.068 48L408.87 87.7L709.043 87.8738C709.043 87.8738 751 87.5 760.265 87.5C755.5 68.5 750.913 48.3627 750.913 48.3627L750.911 48.3652Z" fill="white"/>
<path d="M491.5 88.4C511.712 95.6214 546.095 102 585.024 102C623.93 102 657.812 95.6215 678 88.4001" stroke="white" stroke-width="1.4"/>
<path d="M671.429 48.1681C671.429 48.1681 674.389 61.3061 675 66H492L495.768 48L493 65H674L671.428 48.1658L671.429 48.1681Z" fill="white"/>
</g>
<path d="M274 4C274 1.79086 275.791 0 278 0H890C892.209 0 894 1.79086 894 4V36H274V4Z" fill="#00439C"/>
<g clip-path="url(#clip0_6381_12132)">
<path d="M519.065 22.8712H519.467V24.0646H519.634V22.8712H520.022V22.7324H519.065V22.8712Z" fill="white"/>
<path d="M521.247 22.7324L520.872 23.9189H520.865L520.497 22.7324H520.227V24.0646H520.379V22.8573L520.768 24.0646H520.969L521.365 22.8573V24.0646H521.524V22.7324H521.247Z" fill="white"/>
<path d="M497.515 11.8145H490.012C489.114 11.8145 488.264 12.1668 487.629 12.8024C486.993 13.4381 486.641 14.2809 486.641 15.186V20.7062C486.641 21.6873 485.846 22.4818 484.865 22.4818H478.723C478.592 22.4818 478.481 22.5924 478.481 22.7237V23.8291C478.481 23.9603 478.592 24.0709 478.723 24.0709H486.136C487.995 24.0709 489.501 22.5578 489.501 20.7062V15.186C489.501 14.2049 490.295 13.4104 491.277 13.4104H497.502C497.633 13.4104 497.743 13.2999 497.743 13.1686V12.0632C497.743 11.9319 497.633 11.8214 497.502 11.8214L497.515 11.8145Z" fill="white"/>
<path d="M514.359 16.9586H503.637C503.215 16.9586 502.877 16.6201 502.877 16.1986V13.4074H517.206C517.337 13.4074 517.448 13.2969 517.448 13.1656V12.0602C517.448 11.9289 517.337 11.8184 517.206 11.8184H500.251C500.12 11.8184 500.01 11.9289 500.01 12.0602V16.4612C500.01 17.6149 500.949 18.5546 502.103 18.5546H513.067C513.599 18.5546 514.097 18.7618 514.477 19.1418C514.85 19.5149 515.05 20.0054 515.05 20.5236C515.05 21.6014 514.166 22.4788 513.088 22.4788H500.258C500.127 22.4788 500.016 22.5894 500.016 22.7206V23.8261C500.016 23.9573 500.127 24.0679 500.258 24.0679H514.366C516.328 24.0679 517.924 22.4719 517.924 20.5098C517.924 18.5477 516.328 16.9517 514.366 16.9517L514.359 16.9586Z" fill="white"/>
<path d="M479.618 15.1889C479.618 13.3304 478.105 11.8242 476.253 11.8242H461.973C461.841 11.8242 461.731 11.9348 461.731 12.066V13.1715C461.731 13.3027 461.841 13.4133 461.973 13.4133H474.982C475.963 13.4133 476.758 14.2078 476.758 15.1889C476.758 16.1699 475.963 16.9645 474.982 16.9645H465.102C463.244 16.9645 461.738 18.4775 461.738 20.3291V23.8319C461.738 23.9632 461.848 24.0737 461.979 24.0737H464.363C464.494 24.0737 464.605 23.9632 464.605 23.8319V20.3291C464.605 19.348 465.399 18.5535 466.38 18.5535H476.26C478.119 18.5535 479.625 17.0405 479.625 15.1889H479.618Z" fill="white"/>
<path d="M444.979 12.8639V19.0819C447.597 20.3463 449.656 19.0819 449.656 15.738C449.656 12.3941 448.447 10.805 444.896 9.58214C443.493 9.11234 440.896 8.32472 439.106 8V26.5643L443.307 27.8977V12.325C443.307 11.5926 443.632 11.1021 444.157 11.2748C444.841 11.4683 444.979 12.1384 444.979 12.8639Z" fill="white"/>
<path d="M453.335 21.0365C451.574 20.3732 449.335 20.1452 447.511 20.3456C445.68 20.5459 444.381 21.0019 444.381 21.0019L444.126 21.0848V23.6135L448.617 22.0314C449.39 21.755 450.51 21.6928 451.138 21.9001C451.76 22.1005 451.643 22.4874 450.876 22.7706L444.126 25.1749V27.6069L453.301 24.3113C453.301 24.3113 454.538 23.8553 455.042 23.2197C455.546 22.5772 455.318 21.6583 453.335 21.0296V21.0365Z" fill="white"/>
<path d="M429.964 22.4622C429.038 23.1531 429.377 24.3483 431.408 24.9149C433.591 25.6403 435.802 25.7785 437.882 25.433C438.02 25.4123 438.165 25.3847 438.303 25.3639V23.1807L436.224 23.9338C435.457 24.2171 434.337 24.2723 433.709 24.0651C433.094 23.8647 433.204 23.4778 433.971 23.2014L438.303 21.6469V19.2012L432.279 21.3498C432.279 21.3498 430.821 21.8266 429.964 22.4553V22.4622Z" fill="white"/>
<path d="M453.831 26.9036C453.977 26.855 454.046 26.7578 454.046 26.6189C454.046 26.3828 453.894 26.3203 453.678 26.3203H453.22V27.48H453.428V26.987H453.567C453.741 26.987 453.783 27.0286 453.81 27.1606C453.831 27.2439 453.873 27.3897 453.901 27.4731H454.116C454.081 27.362 454.039 27.237 454.005 27.112C453.97 26.98 453.914 26.9245 453.838 26.9036H453.831ZM453.609 26.8342H453.428V26.4592H453.63C453.741 26.4592 453.852 26.48 453.852 26.6398C453.852 26.7717 453.762 26.8272 453.616 26.8272L453.609 26.8342Z" fill="white"/>
<path d="M453.609 25.9004C453.014 25.9004 452.605 26.3438 452.605 26.8981C452.605 27.4524 453.014 27.8958 453.609 27.8958C454.205 27.8958 454.6 27.4593 454.6 26.8981C454.6 26.3369 454.198 25.9004 453.609 25.9004ZM453.609 27.7503C453.097 27.7503 452.764 27.3693 452.764 26.8981C452.764 26.427 453.097 26.0528 453.609 26.0528C454.122 26.0528 454.448 26.4339 454.448 26.8981C454.448 27.3623 454.115 27.7503 453.609 27.7503Z" fill="white"/>
</g>
<g clip-path="url(#clip1_6381_12132)">
<path d="M735.59 22.8712H735.993V24.0646H736.159V22.8712H736.548V22.7324H735.59V22.8712Z" fill="white"/>
<path d="M737.772 22.7324L737.398 23.9189H737.391L737.023 22.7324H736.752V24.0646H736.905V22.8573L737.294 24.0646H737.495L737.89 22.8573V24.0646H738.05V22.7324H737.772Z" fill="white"/>
<path d="M714.041 11.8145H706.538C705.64 11.8145 704.79 12.1668 704.154 12.8024C703.519 13.4381 703.166 14.2809 703.166 15.186V20.7062C703.166 21.6873 702.372 22.4818 701.391 22.4818H695.249C695.117 22.4818 695.007 22.5924 695.007 22.7237V23.8291C695.007 23.9603 695.117 24.0709 695.249 24.0709H702.662C704.52 24.0709 706.027 22.5578 706.027 20.7062V15.186C706.027 14.2049 706.821 13.4104 707.802 13.4104H714.027C714.158 13.4104 714.269 13.2999 714.269 13.1686V12.0632C714.269 11.9319 714.158 11.8214 714.027 11.8214L714.041 11.8145Z" fill="white"/>
<path d="M730.885 16.9586H720.162C719.741 16.9586 719.402 16.6201 719.402 16.1986V13.4074H733.731C733.863 13.4074 733.973 13.2969 733.973 13.1656V12.0602C733.973 11.9289 733.863 11.8184 733.731 11.8184H716.777C716.646 11.8184 716.535 11.9289 716.535 12.0602V16.4612C716.535 17.6149 717.475 18.5546 718.629 18.5546H729.593C730.125 18.5546 730.622 18.7618 731.002 19.1418C731.376 19.5149 731.576 20.0054 731.576 20.5236C731.576 21.6014 730.692 22.4788 729.614 22.4788H716.784C716.653 22.4788 716.542 22.5894 716.542 22.7206V23.8261C716.542 23.9573 716.653 24.0679 716.784 24.0679H730.892C732.854 24.0679 734.45 22.4719 734.45 20.5098C734.45 18.5477 732.854 16.9517 730.892 16.9517L730.885 16.9586Z" fill="white"/>
<path d="M696.144 15.1889C696.144 13.3304 694.631 11.8242 692.779 11.8242H678.498C678.367 11.8242 678.256 11.9348 678.256 12.066V13.1715C678.256 13.3027 678.367 13.4133 678.498 13.4133H691.508C692.489 13.4133 693.283 14.2078 693.283 15.1889C693.283 16.1699 692.489 16.9645 691.508 16.9645H681.628C679.769 16.9645 678.263 18.4775 678.263 20.3291V23.8319C678.263 23.9632 678.374 24.0737 678.505 24.0737H680.889C681.02 24.0737 681.13 23.9632 681.13 23.8319V20.3291C681.13 19.348 681.925 18.5535 682.906 18.5535H692.786C694.644 18.5535 696.15 17.0405 696.15 15.1889H696.144Z" fill="white"/>
<path d="M661.504 12.8639V19.0819C664.123 20.3463 666.182 19.0819 666.182 15.738C666.182 12.3941 664.973 10.805 661.422 9.58214C660.019 9.11234 657.421 8.32472 655.632 8V26.5643L659.832 27.8977V12.325C659.832 11.5926 660.157 11.1021 660.682 11.2748C661.366 11.4683 661.504 12.1384 661.504 12.8639Z" fill="white"/>
<path d="M669.861 21.0365C668.099 20.3732 665.861 20.1452 664.037 20.3456C662.206 20.5459 660.907 21.0019 660.907 21.0019L660.651 21.0848V23.6135L665.142 22.0314C665.916 21.755 667.035 21.6928 667.664 21.9001C668.286 22.1005 668.168 22.4874 667.401 22.7706L660.651 25.1749V27.6069L669.826 24.3113C669.826 24.3113 671.063 23.8553 671.567 23.2197C672.072 22.5772 671.844 21.6583 669.861 21.0296V21.0365Z" fill="white"/>
<path d="M646.49 22.4622C645.564 23.1531 645.902 24.3483 647.934 24.9149C650.117 25.6403 652.328 25.7785 654.407 25.433C654.545 25.4123 654.691 25.3847 654.829 25.3639V23.1807L652.749 23.9338C651.982 24.2171 650.863 24.2723 650.234 24.0651C649.619 23.8647 649.73 23.4778 650.497 23.2014L654.829 21.6469V19.2012L648.804 21.3498C648.804 21.3498 647.346 21.8266 646.49 22.4553V22.4622Z" fill="white"/>
<path d="M670.357 26.9036C670.502 26.855 670.572 26.7578 670.572 26.6189C670.572 26.3828 670.419 26.3203 670.204 26.3203H669.746V27.48H669.954V26.987H670.093C670.266 26.987 670.308 27.0286 670.336 27.1606C670.357 27.2439 670.398 27.3897 670.426 27.4731H670.641C670.607 27.362 670.565 27.237 670.53 27.112C670.496 26.98 670.44 26.9245 670.364 26.9036H670.357ZM670.134 26.8342H669.954V26.4592H670.155C670.266 26.4592 670.378 26.48 670.378 26.6398C670.378 26.7717 670.287 26.8272 670.141 26.8272L670.134 26.8342Z" fill="white"/>
<path d="M670.135 25.9004C669.539 25.9004 669.13 26.3438 669.13 26.8981C669.13 27.4524 669.539 27.8958 670.135 27.8958C670.731 27.8958 671.126 27.4593 671.126 26.8981C671.126 26.3369 670.724 25.9004 670.135 25.9004ZM670.135 27.7503C669.622 27.7503 669.29 27.3693 669.29 26.8981C669.29 26.427 669.622 26.0528 670.135 26.0528C670.648 26.0528 670.973 26.4339 670.973 26.8981C670.973 27.3623 670.641 27.7503 670.135 27.7503Z" fill="white"/>
</g>
<defs>
<filter id="filter0_f_6381_12132" x="0.789621" y="52.0264" width="1165.67" height="533.155" filterUnits="userSpaceOnUse" color-interpolation-filters="sRGB">
<feFlood flood-opacity="0" result="BackgroundImageFix"/>
<feBlend mode="normal" in="SourceGraphic" in2="BackgroundImageFix" result="shape"/>
<feGaussianBlur stdDeviation="9.61373" result="effect1_foregroundBlur_6381_12132"/>
</filter>
<filter id="filter1_f_6381_12132" x="28.4285" y="66.8489" width="1110.39" height="503.519" filterUnits="userSpaceOnUse" color-interpolation-filters="sRGB">
<feFlood flood-opacity="0" result="BackgroundImageFix"/>
<feBlend mode="normal" in="SourceGraphic" in2="BackgroundImageFix" result="shape"/>
<feGaussianBlur stdDeviation="7.2103" result="effect1_foregroundBlur_6381_12132"/>
</filter>
<linearGradient id="paint0_linear_6381_12132" x1="583.5" y1="36.0018" x2="583.5" y2="540.002" gradientUnits="userSpaceOnUse">
<stop stop-color="#20D8B8"/>
<stop offset="1" stop-color="#129981"/>
</linearGradient>
<clipPath id="clip0_6381_12132">
<rect width="92.5243" height="20" fill="white" transform="translate(429.476 8)"/>
</clipPath>
<clipPath id="clip1_6381_12132">
<rect width="92.5243" height="20" fill="white" transform="translate(646 8)"/>
</clipPath>
</defs>
</svg>
