<svg width="102" height="118" viewBox="0 0 102 118" fill="none" xmlns="http://www.w3.org/2000/svg">
<g filter="url(#filter0_d_3_467)">
<path d="M80.4545 84.9692L47.5879 110L14.5455 84.9692C8.74545 79.1929 4 76.7423 4 70.966V12.5024C4 6.72609 8.74545 2 14.5455 2H80.4545C86.2545 2 91 6.72609 91 12.5024V70.966C91 76.7423 86.6061 78.8428 80.4545 84.9692Z" fill="white"/>
<mask id="mask0_3_467" style="mask-type:alpha" maskUnits="userSpaceOnUse" x="4" y="2" width="87" height="108">
<path d="M80.4545 84.9692L47.5879 110L14.5455 84.9692C8.74545 79.1929 4 76.7423 4 70.966V12.5024C4 6.72609 8.74545 2 14.5455 2H80.4545C86.2545 2 91 6.72609 91 12.5024V70.966C91 76.7423 86.6061 78.8428 80.4545 84.9692Z" fill="white"/>
</mask>
<g mask="url(#mask0_3_467)">
<path d="M4 76.9999H91V134H4V76.9999Z" fill="#D33333"/>
<path d="M24.29 86.1399V85.1899C23.61 85.1699 23.0267 85.0499 22.54 84.8299C22.06 84.6099 21.6933 84.2966 21.44 83.8899C21.1867 83.4766 21.06 82.9866 21.06 82.4199C21.06 81.8333 21.1833 81.3333 21.43 80.9199C21.6833 80.4999 22.05 80.1766 22.53 79.9499C23.0167 79.7233 23.6033 79.6033 24.29 79.5899V78.7299H25.7V79.5899C26.3933 79.6033 26.9833 79.7233 27.47 79.9499C27.9567 80.1766 28.3267 80.4966 28.58 80.9099C28.8333 81.3233 28.96 81.8199 28.96 82.3999C28.96 82.9799 28.8333 83.4766 28.58 83.8899C28.3267 84.2966 27.9567 84.6099 27.47 84.8299C26.99 85.0499 26.4033 85.1666 25.71 85.1799L25.7 86.1399H24.29ZM24.29 84.0099V80.7699C23.8967 80.7833 23.57 80.8566 23.31 80.9899C23.0567 81.1166 22.8667 81.2999 22.74 81.5399C22.6133 81.7733 22.55 82.0633 22.55 82.4099C22.55 82.7499 22.6133 83.0366 22.74 83.2699C22.8667 83.5033 23.0567 83.6799 23.31 83.7999C23.57 83.9199 23.8967 83.9899 24.29 84.0099ZM25.71 83.9999C26.1033 83.9866 26.43 83.9199 26.69 83.7999C26.95 83.6799 27.1433 83.5033 27.27 83.2699C27.4033 83.0299 27.47 82.7366 27.47 82.3899C27.47 82.0433 27.4033 81.7533 27.27 81.5199C27.1433 81.2866 26.95 81.1066 26.69 80.9799C26.43 80.8533 26.1033 80.7799 25.71 80.7599V83.9999ZM34.4419 85.9999L33.9219 84.2999H31.3219L30.8019 85.9999H29.1719L31.6919 78.8299H33.5419L36.0719 85.9999H34.4419ZM33.0419 81.3699C33.0085 81.2566 32.9652 81.1133 32.9119 80.9399C32.8585 80.7666 32.8052 80.5899 32.7519 80.4099C32.6985 80.2299 32.6552 80.0733 32.6219 79.9399C32.5885 80.0733 32.5419 80.2399 32.4819 80.4399C32.4285 80.6333 32.3752 80.8199 32.3219 80.9999C32.2752 81.1733 32.2385 81.2966 32.2119 81.3699L31.7019 83.0299H33.5619L33.0419 81.3699ZM36.9762 85.9999V78.8599H39.0362L40.7262 84.3199H40.7562L42.5462 78.8599H44.6062V85.9999H43.1962V82.6199C43.1962 82.3933 43.1995 82.1333 43.2062 81.8399C43.2195 81.5466 43.2295 81.2699 43.2362 81.0099C43.2495 80.7433 43.2595 80.5433 43.2662 80.4099H43.2262L41.3862 85.9999H39.9962L38.2762 80.3999H38.2362C38.2428 80.5333 38.2528 80.7333 38.2662 80.9999C38.2795 81.2666 38.2928 81.5533 38.3062 81.8599C38.3195 82.1599 38.3262 82.4333 38.3262 82.6799V85.9999H36.9762ZM46.4098 85.9999V78.8599H47.9198V82.3299C47.9198 82.5499 47.9164 82.7933 47.9098 83.0599C47.9031 83.3199 47.8931 83.5566 47.8798 83.7699C47.8731 83.9766 47.8664 84.1133 47.8598 84.1799H47.8898L50.5998 78.8599H52.4798V85.9999H50.9698V82.6999C50.9698 82.5199 50.9731 82.3233 50.9798 82.1099C50.9864 81.8899 50.9931 81.6799 50.9998 81.4799C51.0131 81.2799 51.0231 81.1066 51.0298 80.9599C51.0364 80.8066 51.0431 80.7066 51.0498 80.6599H51.0098L48.2898 85.9999H46.4098ZM54.3699 86.1099C54.2299 86.1099 54.0766 86.0999 53.9099 86.0799C53.7433 86.0599 53.5966 86.0333 53.4699 85.9999V84.7199C53.5633 84.7466 53.6499 84.7666 53.7299 84.7799C53.8166 84.7933 53.9033 84.7999 53.9899 84.7999C54.1633 84.7999 54.3066 84.7599 54.4199 84.6799C54.5333 84.5999 54.6233 84.4733 54.6899 84.2999C54.7566 84.1199 54.7999 83.8866 54.8199 83.5999C54.8399 83.3399 54.8599 83.0533 54.8799 82.7399C54.9066 82.4266 54.9299 82.0799 54.9499 81.6999C54.9699 81.3133 54.9899 80.8866 55.0099 80.4199C55.0299 79.9533 55.0533 79.4333 55.0799 78.8599H59.8799V85.9999H58.3699V80.1199H56.4099C56.3899 80.4799 56.3699 80.8299 56.3499 81.1699C56.3366 81.5033 56.3199 81.8266 56.2999 82.1399C56.2866 82.4466 56.2699 82.7466 56.2499 83.0399C56.2299 83.3266 56.2066 83.6066 56.1799 83.8799C56.1333 84.3933 56.0366 84.8166 55.8899 85.1499C55.7499 85.4766 55.5533 85.7199 55.2999 85.8799C55.0533 86.0333 54.7433 86.1099 54.3699 86.1099ZM61.6832 85.9999V78.8599H63.1932V82.3299C63.1932 82.5499 63.1899 82.7933 63.1832 83.0599C63.1765 83.3199 63.1665 83.5566 63.1532 83.7699C63.1465 83.9766 63.1399 84.1133 63.1332 84.1799H63.1632L65.8732 78.8599H67.7532V85.9999H66.2432V82.6999C66.2432 82.5199 66.2465 82.3233 66.2532 82.1099C66.2599 81.8899 66.2665 81.6799 66.2732 81.4799C66.2865 81.2799 66.2965 81.1066 66.3032 80.9599C66.3099 80.8066 66.3165 80.7066 66.3232 80.6599H66.2832L63.5632 85.9999H61.6832ZM68.8934 85.9999L70.8634 82.9899C70.6634 82.9166 70.4567 82.8033 70.2434 82.6499C70.0367 82.4966 69.86 82.2866 69.7134 82.0199C69.5734 81.7466 69.5034 81.3999 69.5034 80.9799C69.5034 80.2866 69.74 79.7599 70.2134 79.3999C70.6934 79.0399 71.3634 78.8599 72.2234 78.8599H74.6034V85.9999H73.0934V83.3599H72.2734L70.5834 85.9999H68.8934ZM72.2934 82.1199H73.0934V80.0999H72.2734C71.86 80.0999 71.55 80.1799 71.3434 80.3399C71.1434 80.4933 71.0434 80.7366 71.0434 81.0699C71.0434 81.4366 71.15 81.7033 71.3634 81.8699C71.5834 82.0366 71.8934 82.1199 72.2934 82.1199ZM42.733 91.9999V88.4299H43.183V90.3899C43.183 90.4999 43.1814 90.6233 43.178 90.7599C43.1747 90.8966 43.1697 91.0216 43.163 91.1349C43.1597 91.2483 43.1547 91.3316 43.148 91.3849H43.168L45.058 88.4299H45.543V91.9999H45.093V90.0599C45.093 89.9699 45.0947 89.8733 45.098 89.7699C45.1014 89.6633 45.1047 89.5616 45.108 89.4649C45.1147 89.3649 45.1197 89.2766 45.123 89.1999C45.1264 89.1233 45.1297 89.0666 45.133 89.0299H45.113L43.213 91.9999H42.733ZM46.5123 91.9999V88.4299H47.1773L48.2773 91.3549H48.2973L49.4173 88.4299H50.0773V91.9999H49.6323V89.8049C49.6323 89.6883 49.634 89.5733 49.6373 89.4599C49.6407 89.3433 49.6457 89.2349 49.6523 89.1349C49.659 89.0316 49.664 88.9449 49.6673 88.8749H49.6473L48.4573 91.9999H48.0873L46.9123 88.8699H46.8923C46.899 88.9366 46.904 89.0216 46.9073 89.1249C46.914 89.2283 46.919 89.3416 46.9223 89.4649C46.9257 89.5849 46.9273 89.7083 46.9273 89.8349V91.9999H46.5123ZM50.7135 91.9999L51.6985 90.4699C51.5285 90.4166 51.3851 90.3433 51.2685 90.2499C51.1518 90.1566 51.0635 90.0433 51.0035 89.9099C50.9435 89.7766 50.9135 89.6249 50.9135 89.4549C50.9135 89.1183 51.0268 88.8633 51.2535 88.6899C51.4835 88.5166 51.8151 88.4299 52.2485 88.4299H53.2685V91.9999H52.8185V90.5399H52.1535L51.2285 91.9999H50.7135ZM52.2785 90.1599H52.8185V88.8149H52.2585C51.9585 88.8149 51.7368 88.8683 51.5935 88.9749C51.4501 89.0783 51.3785 89.2399 51.3785 89.4599C51.3785 89.6933 51.4551 89.8683 51.6085 89.9849C51.7618 90.1016 51.9851 90.1599 52.2785 90.1599Z" fill="white"/>
</g>
<circle cx="89" cy="8.99994" r="9" fill="#D9D9D9" fill-opacity="0.67"/>
<path d="M91.6611 13.9999L87.8691 8.23994V7.96794L91.5011 2.57594H94.0611L90.1891 8.25594L90.2211 7.67994L94.4611 13.9999H91.6611ZM84.8931 13.9999V2.57594H87.2931V13.9999H84.8931ZM86.0131 9.07194V7.05594H88.8131V9.07194H86.0131Z" fill="#370B0B" fill-opacity="0.47"/>
<circle cx="89" cy="8.99994" r="9" fill="#D33333"/>
<path d="M91.6611 13.9999L87.8691 8.23994V7.96794L91.5011 2.57594H94.0611L90.1891 8.25594L90.2211 7.67994L94.4611 13.9999H91.6611ZM84.8931 13.9999V2.57594H87.2931V13.9999H84.8931ZM86.0131 9.07194V7.05594H88.8131V9.07194H86.0131Z" fill="white"/>
</g>
<g filter="url(#filter1_d_3_467)">
<path d="M80.4545 84.9692L47.5879 110L14.5455 84.9692C8.74545 79.1929 4 76.7423 4 70.966V12.5024C4 6.72609 8.74545 2 14.5455 2H80.4545C86.2545 2 91 6.72609 91 12.5024V70.966C91 76.7423 86.6061 78.8428 80.4545 84.9692Z" fill="white"/>
<mask id="mask1_3_467" style="mask-type:alpha" maskUnits="userSpaceOnUse" x="4" y="2" width="87" height="108">
<path d="M80.4545 84.9692L47.5879 110L14.5455 84.9692C8.74545 79.1929 4 76.7423 4 70.966V12.5024C4 6.72609 8.74545 2 14.5455 2H80.4545C86.2545 2 91 6.72609 91 12.5024V70.966C91 76.7423 86.6061 78.8428 80.4545 84.9692Z" fill="white"/>
</mask>
<g mask="url(#mask1_3_467)">
<path d="M4 76.9999H91V134H4V76.9999Z" fill="#D33333"/>
</g>
<circle cx="89" cy="8.99994" r="9" fill="#D9D9D9" fill-opacity="0.67"/>
<path d="M91.6611 13.9999L87.8691 8.23994V7.96794L91.5011 2.57594H94.0611L90.1891 8.25594L90.2211 7.67994L94.4611 13.9999H91.6611ZM84.8931 13.9999V2.57594H87.2931V13.9999H84.8931ZM86.0131 9.07194V7.05594H88.8131V9.07194H86.0131Z" fill="#370B0B" fill-opacity="0.47"/>
<circle cx="89" cy="8.99994" r="9" fill="#D33333"/>
<path d="M91.6611 13.9999L87.8691 8.23994V7.96794L91.5011 2.57594H94.0611L90.1891 8.25594L90.2211 7.67994L94.4611 13.9999H91.6611ZM84.8931 13.9999V2.57594H87.2931V13.9999H84.8931ZM86.0131 9.07194V7.05594H88.8131V9.07194H86.0131Z" fill="white"/>
</g>
<defs>
<filter id="filter0_d_3_467" x="0" y="-6.10352e-05" width="102" height="118" filterUnits="userSpaceOnUse" color-interpolation-filters="sRGB">
<feFlood flood-opacity="0" result="BackgroundImageFix"/>
<feColorMatrix in="SourceAlpha" type="matrix" values="0 0 0 0 0 0 0 0 0 0 0 0 0 0 0 0 0 0 127 0" result="hardAlpha"/>
<feOffset dy="4"/>
<feGaussianBlur stdDeviation="2"/>
<feComposite in2="hardAlpha" operator="out"/>
<feColorMatrix type="matrix" values="0 0 0 0 0 0 0 0 0 0 0 0 0 0 0 0 0 0 0.25 0"/>
<feBlend mode="normal" in2="BackgroundImageFix" result="effect1_dropShadow_3_467"/>
<feBlend mode="normal" in="SourceGraphic" in2="effect1_dropShadow_3_467" result="shape"/>
</filter>
<filter id="filter1_d_3_467" x="0" y="-6.10352e-05" width="102" height="118" filterUnits="userSpaceOnUse" color-interpolation-filters="sRGB">
<feFlood flood-opacity="0" result="BackgroundImageFix"/>
<feColorMatrix in="SourceAlpha" type="matrix" values="0 0 0 0 0 0 0 0 0 0 0 0 0 0 0 0 0 0 127 0" result="hardAlpha"/>
<feOffset dy="4"/>
<feGaussianBlur stdDeviation="2"/>
<feComposite in2="hardAlpha" operator="out"/>
<feColorMatrix type="matrix" values="0 0 0 0 0 0 0 0 0 0 0 0 0 0 0 0 0 0 0.25 0"/>
<feBlend mode="normal" in2="BackgroundImageFix" result="effect1_dropShadow_3_467"/>
<feBlend mode="normal" in="SourceGraphic" in2="effect1_dropShadow_3_467" result="shape"/>
</filter>
</defs>
</svg>
