<svg width="102" height="118" viewBox="0 0 102 118" fill="none" xmlns="http://www.w3.org/2000/svg">
<g filter="url(#filter0_d_3_180)">
<path d="M80.4545 84.9693L47.5879 110L14.5455 84.9693C8.74545 79.1929 4 76.7424 4 70.966V12.5025C4 6.72615 8.74545 2.00006 14.5455 2.00006H80.4545C86.2545 2.00006 91 6.72615 91 12.5025V70.966C91 76.7424 86.6061 78.8428 80.4545 84.9693Z" fill="white"/>
<mask id="mask0_3_180" style="mask-type:alpha" maskUnits="userSpaceOnUse" x="4" y="2" width="87" height="108">
<path d="M80.4545 84.9693L47.5879 110L14.5455 84.9693C8.74545 79.1929 4 76.7424 4 70.966V12.5025C4 6.72615 8.74545 2.00006 14.5455 2.00006H80.4545C86.2545 2.00006 91 6.72615 91 12.5025V70.966C91 76.7424 86.6061 78.8428 80.4545 84.9693Z" fill="white"/>
</mask>
<g mask="url(#mask0_3_180)">
<path d="M4 77H91V134H4V77Z" fill="#D33333"/>
<path d="M24.29 86.14V85.19C23.61 85.17 23.0267 85.05 22.54 84.83C22.06 84.61 21.6933 84.2967 21.44 83.89C21.1867 83.4767 21.06 82.9867 21.06 82.42C21.06 81.8333 21.1833 81.3333 21.43 80.92C21.6833 80.5 22.05 80.1767 22.53 79.95C23.0167 79.7233 23.6033 79.6033 24.29 79.59V78.73H25.7V79.59C26.3933 79.6033 26.9833 79.7233 27.47 79.95C27.9567 80.1767 28.3267 80.4967 28.58 80.91C28.8333 81.3233 28.96 81.82 28.96 82.4C28.96 82.98 28.8333 83.4767 28.58 83.89C28.3267 84.2967 27.9567 84.61 27.47 84.83C26.99 85.05 26.4033 85.1667 25.71 85.18L25.7 86.14H24.29ZM24.29 84.01V80.77C23.8967 80.7833 23.57 80.8567 23.31 80.99C23.0567 81.1167 22.8667 81.3 22.74 81.54C22.6133 81.7733 22.55 82.0633 22.55 82.41C22.55 82.75 22.6133 83.0367 22.74 83.27C22.8667 83.5033 23.0567 83.68 23.31 83.8C23.57 83.92 23.8967 83.99 24.29 84.01ZM25.71 84C26.1033 83.9867 26.43 83.92 26.69 83.8C26.95 83.68 27.1433 83.5033 27.27 83.27C27.4033 83.03 27.47 82.7367 27.47 82.39C27.47 82.0433 27.4033 81.7533 27.27 81.52C27.1433 81.2867 26.95 81.1067 26.69 80.98C26.43 80.8533 26.1033 80.78 25.71 80.76V84ZM34.4419 86L33.9219 84.3H31.3219L30.8019 86H29.1719L31.6919 78.83H33.5419L36.0719 86H34.4419ZM33.0419 81.37C33.0085 81.2567 32.9652 81.1133 32.9119 80.94C32.8585 80.7667 32.8052 80.59 32.7519 80.41C32.6985 80.23 32.6552 80.0733 32.6219 79.94C32.5885 80.0733 32.5419 80.24 32.4819 80.44C32.4285 80.6333 32.3752 80.82 32.3219 81C32.2752 81.1733 32.2385 81.2967 32.2119 81.37L31.7019 83.03H33.5619L33.0419 81.37ZM36.9762 86V78.86H39.0362L40.7262 84.32H40.7562L42.5462 78.86H44.6062V86H43.1962V82.62C43.1962 82.3933 43.1995 82.1333 43.2062 81.84C43.2195 81.5467 43.2295 81.27 43.2362 81.01C43.2495 80.7433 43.2595 80.5433 43.2662 80.41H43.2262L41.3862 86H39.9962L38.2762 80.4H38.2362C38.2428 80.5333 38.2528 80.7333 38.2662 81C38.2795 81.2667 38.2928 81.5533 38.3062 81.86C38.3195 82.16 38.3262 82.4333 38.3262 82.68V86H36.9762ZM46.4098 86V78.86H47.9198V82.33C47.9198 82.55 47.9164 82.7933 47.9098 83.06C47.9031 83.32 47.8931 83.5567 47.8798 83.77C47.8731 83.9767 47.8664 84.1133 47.8598 84.18H47.8898L50.5998 78.86H52.4798V86H50.9698V82.7C50.9698 82.52 50.9731 82.3233 50.9798 82.11C50.9864 81.89 50.9931 81.68 50.9998 81.48C51.0131 81.28 51.0231 81.1067 51.0298 80.96C51.0364 80.8067 51.0431 80.7067 51.0498 80.66H51.0098L48.2898 86H46.4098ZM54.3699 86.11C54.2299 86.11 54.0766 86.1 53.9099 86.08C53.7433 86.06 53.5966 86.0333 53.4699 86V84.72C53.5633 84.7467 53.6499 84.7667 53.7299 84.78C53.8166 84.7933 53.9033 84.8 53.9899 84.8C54.1633 84.8 54.3066 84.76 54.4199 84.68C54.5333 84.6 54.6233 84.4733 54.6899 84.3C54.7566 84.12 54.7999 83.8867 54.8199 83.6C54.8399 83.34 54.8599 83.0533 54.8799 82.74C54.9066 82.4267 54.9299 82.08 54.9499 81.7C54.9699 81.3133 54.9899 80.8867 55.0099 80.42C55.0299 79.9533 55.0533 79.4333 55.0799 78.86H59.8799V86H58.3699V80.12H56.4099C56.3899 80.48 56.3699 80.83 56.3499 81.17C56.3366 81.5033 56.3199 81.8267 56.2999 82.14C56.2866 82.4467 56.2699 82.7467 56.2499 83.04C56.2299 83.3267 56.2066 83.6067 56.1799 83.88C56.1333 84.3933 56.0366 84.8167 55.8899 85.15C55.7499 85.4767 55.5533 85.72 55.2999 85.88C55.0533 86.0333 54.7433 86.11 54.3699 86.11ZM61.6832 86V78.86H63.1932V82.33C63.1932 82.55 63.1899 82.7933 63.1832 83.06C63.1765 83.32 63.1665 83.5567 63.1532 83.77C63.1465 83.9767 63.1399 84.1133 63.1332 84.18H63.1632L65.8732 78.86H67.7532V86H66.2432V82.7C66.2432 82.52 66.2465 82.3233 66.2532 82.11C66.2599 81.89 66.2665 81.68 66.2732 81.48C66.2865 81.28 66.2965 81.1067 66.3032 80.96C66.3099 80.8067 66.3165 80.7067 66.3232 80.66H66.2832L63.5632 86H61.6832ZM68.8934 86L70.8634 82.99C70.6634 82.9167 70.4567 82.8033 70.2434 82.65C70.0367 82.4967 69.86 82.2867 69.7134 82.02C69.5734 81.7467 69.5034 81.4 69.5034 80.98C69.5034 80.2867 69.74 79.76 70.2134 79.4C70.6934 79.04 71.3634 78.86 72.2234 78.86H74.6034V86H73.0934V83.36H72.2734L70.5834 86H68.8934ZM72.2934 82.12H73.0934V80.1H72.2734C71.86 80.1 71.55 80.18 71.3434 80.34C71.1434 80.4933 71.0434 80.7367 71.0434 81.07C71.0434 81.4367 71.15 81.7033 71.3634 81.87C71.5834 82.0367 71.8934 82.12 72.2934 82.12ZM42.733 92V88.43H43.183V90.39C43.183 90.5 43.1814 90.6233 43.178 90.76C43.1747 90.8967 43.1697 91.0217 43.163 91.135C43.1597 91.2483 43.1547 91.3317 43.148 91.385H43.168L45.058 88.43H45.543V92H45.093V90.06C45.093 89.97 45.0947 89.8733 45.098 89.77C45.1014 89.6633 45.1047 89.5617 45.108 89.465C45.1147 89.365 45.1197 89.2767 45.123 89.2C45.1264 89.1233 45.1297 89.0667 45.133 89.03H45.113L43.213 92H42.733ZM46.5123 92V88.43H47.1773L48.2773 91.355H48.2973L49.4173 88.43H50.0773V92H49.6323V89.805C49.6323 89.6883 49.634 89.5733 49.6373 89.46C49.6407 89.3433 49.6457 89.235 49.6523 89.135C49.659 89.0317 49.664 88.945 49.6673 88.875H49.6473L48.4573 92H48.0873L46.9123 88.87H46.8923C46.899 88.9367 46.904 89.0217 46.9073 89.125C46.914 89.2283 46.919 89.3417 46.9223 89.465C46.9257 89.585 46.9273 89.7083 46.9273 89.835V92H46.5123ZM50.7135 92L51.6985 90.47C51.5285 90.4167 51.3851 90.3433 51.2685 90.25C51.1518 90.1567 51.0635 90.0433 51.0035 89.91C50.9435 89.7767 50.9135 89.625 50.9135 89.455C50.9135 89.1183 51.0268 88.8633 51.2535 88.69C51.4835 88.5167 51.8151 88.43 52.2485 88.43H53.2685V92H52.8185V90.54H52.1535L51.2285 92H50.7135ZM52.2785 90.16H52.8185V88.815H52.2585C51.9585 88.815 51.7368 88.8683 51.5935 88.975C51.4501 89.0783 51.3785 89.24 51.3785 89.46C51.3785 89.6933 51.4551 89.8683 51.6085 89.985C51.7618 90.1017 51.9851 90.16 52.2785 90.16Z" fill="white"/>
</g>
<circle cx="89" cy="9" r="9" fill="#D9D9D9" fill-opacity="0.67"/>
<path d="M91.6611 14L87.8691 8.24V7.968L91.5011 2.576H94.0611L90.1891 8.256L90.2211 7.68L94.4611 14H91.6611ZM84.8931 14V2.576H87.2931V14H84.8931ZM86.0131 9.072V7.056H88.8131V9.072H86.0131Z" fill="#370B0B" fill-opacity="0.47"/>
<circle cx="89" cy="9" r="9" fill="#D33333"/>
<path d="M91.6611 14L87.8691 8.24V7.968L91.5011 2.576H94.0611L90.1891 8.256L90.2211 7.68L94.4611 14H91.6611ZM84.8931 14V2.576H87.2931V14H84.8931ZM86.0131 9.072V7.056H88.8131V9.072H86.0131Z" fill="white"/>
</g>
<g filter="url(#filter1_d_3_180)">
<path d="M80.4545 84.9693L47.5879 110L14.5455 84.9693C8.74545 79.1929 4 76.7424 4 70.966V12.5025C4 6.72615 8.74545 2.00006 14.5455 2.00006H80.4545C86.2545 2.00006 91 6.72615 91 12.5025V70.966C91 76.7424 86.6061 78.8428 80.4545 84.9693Z" fill="white"/>
<mask id="mask1_3_180" style="mask-type:alpha" maskUnits="userSpaceOnUse" x="4" y="2" width="87" height="108">
<path d="M80.4545 84.9693L47.5879 110L14.5455 84.9693C8.74545 79.1929 4 76.7424 4 70.966V12.5025C4 6.72615 8.74545 2.00006 14.5455 2.00006H80.4545C86.2545 2.00006 91 6.72615 91 12.5025V70.966C91 76.7424 86.6061 78.8428 80.4545 84.9693Z" fill="white"/>
</mask>
<g mask="url(#mask1_3_180)">
<path d="M4 77H91V134H4V77Z" fill="#D33333"/>
<path d="M24.29 86.14V85.19C23.61 85.17 23.0267 85.05 22.54 84.83C22.06 84.61 21.6933 84.2967 21.44 83.89C21.1867 83.4767 21.06 82.9867 21.06 82.42C21.06 81.8333 21.1833 81.3333 21.43 80.92C21.6833 80.5 22.05 80.1767 22.53 79.95C23.0167 79.7233 23.6033 79.6033 24.29 79.59V78.73H25.7V79.59C26.3933 79.6033 26.9833 79.7233 27.47 79.95C27.9567 80.1767 28.3267 80.4967 28.58 80.91C28.8333 81.3233 28.96 81.82 28.96 82.4C28.96 82.98 28.8333 83.4767 28.58 83.89C28.3267 84.2967 27.9567 84.61 27.47 84.83C26.99 85.05 26.4033 85.1667 25.71 85.18L25.7 86.14H24.29ZM24.29 84.01V80.77C23.8967 80.7833 23.57 80.8567 23.31 80.99C23.0567 81.1167 22.8667 81.3 22.74 81.54C22.6133 81.7733 22.55 82.0633 22.55 82.41C22.55 82.75 22.6133 83.0367 22.74 83.27C22.8667 83.5033 23.0567 83.68 23.31 83.8C23.57 83.92 23.8967 83.99 24.29 84.01ZM25.71 84C26.1033 83.9867 26.43 83.92 26.69 83.8C26.95 83.68 27.1433 83.5033 27.27 83.27C27.4033 83.03 27.47 82.7367 27.47 82.39C27.47 82.0433 27.4033 81.7533 27.27 81.52C27.1433 81.2867 26.95 81.1067 26.69 80.98C26.43 80.8533 26.1033 80.78 25.71 80.76V84ZM34.4419 86L33.9219 84.3H31.3219L30.8019 86H29.1719L31.6919 78.83H33.5419L36.0719 86H34.4419ZM33.0419 81.37C33.0085 81.2567 32.9652 81.1133 32.9119 80.94C32.8585 80.7667 32.8052 80.59 32.7519 80.41C32.6985 80.23 32.6552 80.0733 32.6219 79.94C32.5885 80.0733 32.5419 80.24 32.4819 80.44C32.4285 80.6333 32.3752 80.82 32.3219 81C32.2752 81.1733 32.2385 81.2967 32.2119 81.37L31.7019 83.03H33.5619L33.0419 81.37ZM36.9762 86V78.86H39.0362L40.7262 84.32H40.7562L42.5462 78.86H44.6062V86H43.1962V82.62C43.1962 82.3933 43.1995 82.1333 43.2062 81.84C43.2195 81.5467 43.2295 81.27 43.2362 81.01C43.2495 80.7433 43.2595 80.5433 43.2662 80.41H43.2262L41.3862 86H39.9962L38.2762 80.4H38.2362C38.2428 80.5333 38.2528 80.7333 38.2662 81C38.2795 81.2667 38.2928 81.5533 38.3062 81.86C38.3195 82.16 38.3262 82.4333 38.3262 82.68V86H36.9762ZM46.4098 86V78.86H47.9198V82.33C47.9198 82.55 47.9164 82.7933 47.9098 83.06C47.9031 83.32 47.8931 83.5567 47.8798 83.77C47.8731 83.9767 47.8664 84.1133 47.8598 84.18H47.8898L50.5998 78.86H52.4798V86H50.9698V82.7C50.9698 82.52 50.9731 82.3233 50.9798 82.11C50.9864 81.89 50.9931 81.68 50.9998 81.48C51.0131 81.28 51.0231 81.1067 51.0298 80.96C51.0364 80.8067 51.0431 80.7067 51.0498 80.66H51.0098L48.2898 86H46.4098ZM54.3699 86.11C54.2299 86.11 54.0766 86.1 53.9099 86.08C53.7433 86.06 53.5966 86.0333 53.4699 86V84.72C53.5633 84.7467 53.6499 84.7667 53.7299 84.78C53.8166 84.7933 53.9033 84.8 53.9899 84.8C54.1633 84.8 54.3066 84.76 54.4199 84.68C54.5333 84.6 54.6233 84.4733 54.6899 84.3C54.7566 84.12 54.7999 83.8867 54.8199 83.6C54.8399 83.34 54.8599 83.0533 54.8799 82.74C54.9066 82.4267 54.9299 82.08 54.9499 81.7C54.9699 81.3133 54.9899 80.8867 55.0099 80.42C55.0299 79.9533 55.0533 79.4333 55.0799 78.86H59.8799V86H58.3699V80.12H56.4099C56.3899 80.48 56.3699 80.83 56.3499 81.17C56.3366 81.5033 56.3199 81.8267 56.2999 82.14C56.2866 82.4467 56.2699 82.7467 56.2499 83.04C56.2299 83.3267 56.2066 83.6067 56.1799 83.88C56.1333 84.3933 56.0366 84.8167 55.8899 85.15C55.7499 85.4767 55.5533 85.72 55.2999 85.88C55.0533 86.0333 54.7433 86.11 54.3699 86.11ZM61.6832 86V78.86H63.1932V82.33C63.1932 82.55 63.1899 82.7933 63.1832 83.06C63.1765 83.32 63.1665 83.5567 63.1532 83.77C63.1465 83.9767 63.1399 84.1133 63.1332 84.18H63.1632L65.8732 78.86H67.7532V86H66.2432V82.7C66.2432 82.52 66.2465 82.3233 66.2532 82.11C66.2599 81.89 66.2665 81.68 66.2732 81.48C66.2865 81.28 66.2965 81.1067 66.3032 80.96C66.3099 80.8067 66.3165 80.7067 66.3232 80.66H66.2832L63.5632 86H61.6832ZM68.8934 86L70.8634 82.99C70.6634 82.9167 70.4567 82.8033 70.2434 82.65C70.0367 82.4967 69.86 82.2867 69.7134 82.02C69.5734 81.7467 69.5034 81.4 69.5034 80.98C69.5034 80.2867 69.74 79.76 70.2134 79.4C70.6934 79.04 71.3634 78.86 72.2234 78.86H74.6034V86H73.0934V83.36H72.2734L70.5834 86H68.8934ZM72.2934 82.12H73.0934V80.1H72.2734C71.86 80.1 71.55 80.18 71.3434 80.34C71.1434 80.4933 71.0434 80.7367 71.0434 81.07C71.0434 81.4367 71.15 81.7033 71.3634 81.87C71.5834 82.0367 71.8934 82.12 72.2934 82.12ZM42.733 92V88.43H43.183V90.39C43.183 90.5 43.1814 90.6233 43.178 90.76C43.1747 90.8967 43.1697 91.0217 43.163 91.135C43.1597 91.2483 43.1547 91.3317 43.148 91.385H43.168L45.058 88.43H45.543V92H45.093V90.06C45.093 89.97 45.0947 89.8733 45.098 89.77C45.1014 89.6633 45.1047 89.5617 45.108 89.465C45.1147 89.365 45.1197 89.2767 45.123 89.2C45.1264 89.1233 45.1297 89.0667 45.133 89.03H45.113L43.213 92H42.733ZM46.5123 92V88.43H47.1773L48.2773 91.355H48.2973L49.4173 88.43H50.0773V92H49.6323V89.805C49.6323 89.6883 49.634 89.5733 49.6373 89.46C49.6407 89.3433 49.6457 89.235 49.6523 89.135C49.659 89.0317 49.664 88.945 49.6673 88.875H49.6473L48.4573 92H48.0873L46.9123 88.87H46.8923C46.899 88.9367 46.904 89.0217 46.9073 89.125C46.914 89.2283 46.919 89.3417 46.9223 89.465C46.9257 89.585 46.9273 89.7083 46.9273 89.835V92H46.5123ZM50.7135 92L51.6985 90.47C51.5285 90.4167 51.3851 90.3433 51.2685 90.25C51.1518 90.1567 51.0635 90.0433 51.0035 89.91C50.9435 89.7767 50.9135 89.625 50.9135 89.455C50.9135 89.1183 51.0268 88.8633 51.2535 88.69C51.4835 88.5167 51.8151 88.43 52.2485 88.43H53.2685V92H52.8185V90.54H52.1535L51.2285 92H50.7135ZM52.2785 90.16H52.8185V88.815H52.2585C51.9585 88.815 51.7368 88.8683 51.5935 88.975C51.4501 89.0783 51.3785 89.24 51.3785 89.46C51.3785 89.6933 51.4551 89.8683 51.6085 89.985C51.7618 90.1017 51.9851 90.16 52.2785 90.16Z" fill="white"/>
</g>
<circle cx="89" cy="9" r="9" fill="#D9D9D9" fill-opacity="0.67"/>
<path d="M91.6611 14L87.8691 8.24V7.968L91.5011 2.576H94.0611L90.1891 8.256L90.2211 7.68L94.4611 14H91.6611ZM84.8931 14V2.576H87.2931V14H84.8931ZM86.0131 9.072V7.056H88.8131V9.072H86.0131Z" fill="#370B0B" fill-opacity="0.47"/>
<circle cx="89" cy="9" r="9" fill="#D33333"/>
<path d="M91.6611 14L87.8691 8.24V7.968L91.5011 2.576H94.0611L90.1891 8.256L90.2211 7.68L94.4611 14H91.6611ZM84.8931 14V2.576H87.2931V14H84.8931ZM86.0131 9.072V7.056H88.8131V9.072H86.0131Z" fill="white"/>
</g>
<defs>
<filter id="filter0_d_3_180" x="0" y="0" width="102" height="118" filterUnits="userSpaceOnUse" color-interpolation-filters="sRGB">
<feFlood flood-opacity="0" result="BackgroundImageFix"/>
<feColorMatrix in="SourceAlpha" type="matrix" values="0 0 0 0 0 0 0 0 0 0 0 0 0 0 0 0 0 0 127 0" result="hardAlpha"/>
<feOffset dy="4"/>
<feGaussianBlur stdDeviation="2"/>
<feComposite in2="hardAlpha" operator="out"/>
<feColorMatrix type="matrix" values="0 0 0 0 0 0 0 0 0 0 0 0 0 0 0 0 0 0 0.25 0"/>
<feBlend mode="normal" in2="BackgroundImageFix" result="effect1_dropShadow_3_180"/>
<feBlend mode="normal" in="SourceGraphic" in2="effect1_dropShadow_3_180" result="shape"/>
</filter>
<filter id="filter1_d_3_180" x="0" y="0" width="102" height="118" filterUnits="userSpaceOnUse" color-interpolation-filters="sRGB">
<feFlood flood-opacity="0" result="BackgroundImageFix"/>
<feColorMatrix in="SourceAlpha" type="matrix" values="0 0 0 0 0 0 0 0 0 0 0 0 0 0 0 0 0 0 127 0" result="hardAlpha"/>
<feOffset dy="4"/>
<feGaussianBlur stdDeviation="2"/>
<feComposite in2="hardAlpha" operator="out"/>
<feColorMatrix type="matrix" values="0 0 0 0 0 0 0 0 0 0 0 0 0 0 0 0 0 0 0.25 0"/>
<feBlend mode="normal" in2="BackgroundImageFix" result="effect1_dropShadow_3_180"/>
<feBlend mode="normal" in="SourceGraphic" in2="effect1_dropShadow_3_180" result="shape"/>
</filter>
</defs>
</svg>
