<svg xmlns="http://www.w3.org/2000/svg" xmlns:xlink="http://www.w3.org/1999/xlink" viewBox="0 0 789.5 855.67"><defs><style>.cls-1{isolation:isolate;}.cls-2{fill:url(#radial-gradient);}.cls-3,.cls-7,.cls-8{fill:none;}.cls-3,.cls-4{stroke:#c37015;}.cls-3,.cls-4,.cls-9{stroke-miterlimit:10;}.cls-3,.cls-4,.cls-7,.cls-9{stroke-width:13.41px;}.cls-4{fill:url(#radial-gradient-2);}.cls-5{mix-blend-mode:multiply;opacity:0.2;}.cls-6{fill:#c37015;}.cls-7{stroke:#fff;}.cls-7,.cls-8{stroke-linecap:round;stroke-linejoin:round;}.cls-8,.cls-9{stroke:#600;}.cls-8{stroke-width:22.34px;}.cls-9{fill:#fff;}</style><radialGradient id="radial-gradient" cx="774.11" cy="307.68" r="406.28" gradientTransform="translate(-379.36 -88.53)" gradientUnits="userSpaceOnUse"><stop offset="0.55" stop-color="#c68712"/><stop offset="0.98" stop-color="#fff200"/></radialGradient><radialGradient id="radial-gradient-2" cx="392.07" cy="248.13" r="592.11" gradientUnits="userSpaceOnUse"><stop offset="0.02" stop-color="#fff200"/><stop offset="1" stop-color="#c68712"/></radialGradient></defs><g class="cls-1"><g id="Слой_2" data-name="Слой 2"><g id="Capa_1" data-name="Capa 1"><path class="cls-2" d="M655,74.65c-48.28-34.47-124.27,30.59-48.73,244.16a310.65,310.65,0,0,0,28.46,53.56L778.33,287C733.38,139.28,655,74.65,655,74.65Zm-520.54,0S56.12,139.28,11.17,287l143.58,85.39a310.25,310.25,0,0,0,28.47-53.56C258.75,105.24,182.76,40.18,134.48,74.65Z"/><path class="cls-3" d="M655,74.65c-48.28-34.47-124.27,30.59-48.73,244.16a310.65,310.65,0,0,0,28.46,53.56L778.33,287C733.38,139.28,655,74.65,655,74.65Zm-520.54,0S56.12,139.28,11.17,287l143.58,85.39a310.25,310.25,0,0,0,28.47-53.56C258.75,105.24,182.76,40.18,134.48,74.65Z"/><path class="cls-4" d="M657.82,105.61A38.68,38.68,0,0,0,632.21,61.7L513.09,11.17C479.57,59.3,395.81,126.43,395.81,126.43h-.1S311.31,59.3,277.53,11.17L157.5,61.7a38.64,38.64,0,0,0-25.81,43.91L179.8,355.66s16.46,142.94,0,209.05c-5.1,20.46-20.71,225.95-20.71,225.95l5.56,2.84a505.5,505.5,0,0,0,460.17.13l5.81-3s-15.5-205.49-20.55-225.95c-16.34-66.11,0-209,0-209Z"/><g class="cls-5"><path class="cls-6" d="M169.54,742.87c5-29.06,7.53-63,8.31-99.07C175.06,674.9,172.09,710.78,169.54,742.87Z"/></g><polyline class="cls-7" points="293.73 32.85 131.8 105.61 37.81 302.82"/><polyline class="cls-7" points="495.78 32.85 657.7 105.61 751.7 302.82"/><line class="cls-8" x1="778.33" y1="286.98" x2="634.75" y2="372.37"/><line class="cls-8" x1="11.17" y1="286.98" x2="154.75" y2="372.37"/><path class="cls-8" d="M277.52,11.17C311.3,59.3,395.68,126.43,395.68,126.43S479.44,59.3,513,11.17"/><path class="cls-9" d="M489.22,207.35h66.3s0,66.79-33.15,66.79S489.22,207.35,489.22,207.35Z"/></g></g></g></svg>